<svg width="140" height="140" viewBox="0 0 140 140" fill="none" xmlns="http://www.w3.org/2000/svg">
<circle cx="70" cy="70" r="70" fill="#E2E0E0"/>
<g clip-path="url(#clip0_6304_17217)">
<path d="M104.781 46.9428L94.8192 31.2941C94.1636 30.2642 93.0273 29.6406 91.8065 29.6406H54.7341C54.4464 29.8784 54.1945 30.1636 53.9894 30.4879L43.6221 46.9428H104.781Z" fill="#292727"/>
<path d="M42.6016 50.2976V107.444C42.6016 108.648 43.1982 109.712 44.1115 110.359H102.259C104.232 110.359 105.831 108.76 105.831 106.788V49.6414C105.831 48.4372 105.234 47.3734 104.321 46.7261H46.1731C44.2005 46.7261 42.6016 48.325 42.6016 50.2976Z" fill="#292727"/>
<path d="M61.583 46.0698H78.6455V58.8436H61.583V46.0698Z" fill="white"/>
<path d="M78.6455 46.0238H61.583L64.4541 29.6406H75.7744L78.6455 46.0238Z" fill="white"/>
<path d="M105.831 71.5733C104.925 71.5733 104.19 72.3078 104.19 73.214V106.788C104.19 107.852 103.324 108.719 102.259 108.719H37.97C36.9055 108.719 36.0391 107.853 36.0391 106.788V49.6415C36.0391 48.577 36.9055 47.7106 37.97 47.7106H41.9504V59.8281C41.9504 60.7343 42.6855 61.4688 43.5911 61.4688C44.4973 61.4688 45.2317 60.7343 45.2317 59.8281V47.7106H59.9428V58.8438C59.9428 59.7499 60.6773 60.4844 61.5835 60.4844H78.646C79.5522 60.4844 80.2866 59.7499 80.2866 58.8438V47.7106H102.259C103.324 47.7106 104.19 48.577 104.19 49.6415V59.8832C104.19 60.7888 104.925 61.5239 105.831 61.5239C106.737 61.5239 107.472 60.7888 107.472 59.8832V49.6415C107.472 48.7007 107.22 47.8182 106.781 47.0556C106.753 46.9966 106.722 46.9383 106.687 46.8819L96.2032 30.4135C95.2413 28.9023 93.5974 28 91.8062 28H48.3162C46.5147 28 44.8664 28.91 43.9064 30.434L33.5384 46.8883C33.5038 46.9435 33.4737 46.9998 33.4467 47.0569C33.009 47.8195 32.7578 48.7014 32.7578 49.6415V106.788C32.7578 109.661 35.0963 112 37.97 112H102.259C105.133 112 107.472 109.661 107.472 106.788V73.214C107.472 72.3078 106.737 71.5733 105.831 71.5733ZM77.0053 57.2031H63.2241V47.7106H77.0053V57.2031ZM93.4353 32.1753L101.236 44.4293H80.0322L77.7282 31.2812H91.8062C92.4702 31.2812 93.079 31.6151 93.4353 32.1753ZM74.397 31.2812L76.6926 44.3832H63.5368L65.8324 31.2812H74.397ZM46.682 32.183C47.0377 31.6183 47.649 31.2812 48.3162 31.2812H62.5012L60.1973 44.4293H38.9659L46.682 32.183Z" fill="black"/>
<path d="M105.831 65.0552C105.4 65.0552 104.976 65.2308 104.671 65.5358C104.366 65.8409 104.19 66.2645 104.19 66.6958C104.19 67.1271 104.366 67.5507 104.671 67.8558C104.976 68.1608 105.4 68.3364 105.831 68.3364C106.262 68.3364 106.686 68.1608 106.991 67.8558C107.296 67.5507 107.472 67.1271 107.472 66.6958C107.472 66.2645 107.296 65.8409 106.991 65.5358C106.686 65.2308 106.262 65.0552 105.831 65.0552Z" fill="black"/>
<path d="M42.4315 64.5627C42.1258 64.8677 41.9502 65.2914 41.9502 65.7227C41.9502 66.154 42.1258 66.5776 42.4315 66.8826C42.7365 67.1877 43.1595 67.3633 43.5908 67.3633C44.024 67.3633 44.4457 67.1877 44.7527 66.8826C45.0578 66.5776 45.2314 66.154 45.2314 65.7227C45.2314 65.2914 45.0578 64.8677 44.7527 64.5627C44.4457 64.2576 44.024 64.082 43.5908 64.082C43.1595 64.082 42.7359 64.2576 42.4315 64.5627Z" fill="black"/>
</g>
<defs>
<clipPath id="clip0_6304_17217">
<rect width="84" height="84" fill="white" transform="translate(28 28)"/>
</clipPath>
</defs>
</svg>
