<svg width="192" height="189" viewBox="0 0 192 189" fill="none" xmlns="http://www.w3.org/2000/svg">
<circle cx="94.5" cy="94.5" r="94.5" fill="#E2E0E0"/>
<mask id="mask0_6352_13151" style="mask-type:alpha" maskUnits="userSpaceOnUse" x="3" y="0" width="189" height="189">
<circle cx="97.5" cy="94.5" r="94.5" fill="#E2E0E0"/>
</mask>
<g mask="url(#mask0_6352_13151)">
<mask id="mask1_6352_13151" style="mask-type:luminance" maskUnits="userSpaceOnUse" x="7" y="7" width="194" height="194">
<path d="M201 7H7V201H201V7Z" fill="white"/>
</mask>
<g mask="url(#mask1_6352_13151)">
<path d="M121.226 187.662L95.3955 150.495L136.281 118.674L178.933 187.662" fill="white"/>
<path d="M121.226 187.662L95.3955 150.495L136.281 118.674L178.933 187.662" stroke="black" stroke-width="2" stroke-linecap="round" stroke-linejoin="round"/>
<path d="M111.957 164.366C109.459 163.488 106.488 162.803 102.839 162.523C90.1563 161.549 82.1002 154.318 80.119 147.44C77.7248 139.127 80.8717 129.819 87.1886 123.844C92.2597 119.048 103.974 118.768 106.238 111.476C106.842 109.529 106.637 107.381 107.469 105.514C108.333 103.576 110.225 102.201 112.269 101.437C123.61 97.2015 136.593 102.973 143.327 112.108" fill="white"/>
<path d="M111.957 164.366C109.459 163.488 106.488 162.803 102.839 162.523C90.1563 161.549 82.1002 154.318 80.119 147.44C77.7248 139.127 80.8717 129.819 87.1886 123.844C92.2597 119.048 103.974 118.768 106.238 111.476C106.842 109.529 106.637 107.381 107.469 105.514C108.333 103.576 110.225 102.201 112.269 101.437C123.61 97.2015 136.593 102.973 143.327 112.108" stroke="black" stroke-width="2" stroke-linecap="round" stroke-linejoin="round"/>
<path d="M55.2114 100.419L82.9155 96.9862C87.2856 96.4447 90.3894 92.4631 89.8481 88.0933C89.3066 83.7232 85.3248 80.6196 80.9547 81.1609L53.2503 84.5937C48.8804 85.1352 45.7767 89.1168 46.3182 93.4869C46.8597 97.8568 50.8413 100.961 55.2114 100.419Z" fill="white"/>
<path d="M55.2114 100.419L82.9155 96.9862C87.2856 96.4447 90.3894 92.4631 89.8481 88.0933C89.3066 83.7232 85.3248 80.6196 80.9547 81.1609L53.2503 84.5937C48.8804 85.1352 45.7767 89.1168 46.3182 93.4869C46.8597 97.8568 50.8413 100.961 55.2114 100.419Z" stroke="black" stroke-width="2" stroke-miterlimit="10"/>
<path d="M56.0056 76.4467L83.6496 80.3371C88.01 80.9509 92.042 77.9133 92.6556 73.5529C93.2693 69.1923 90.2323 65.1602 85.8716 64.5465L58.2278 60.6563C53.8672 60.0428 49.8349 63.0801 49.2214 67.4405C48.6076 71.8009 51.6452 75.8329 56.0056 76.4467Z" fill="white"/>
<path d="M56.0056 76.4467L83.6496 80.3371C88.01 80.9509 92.042 77.9133 92.6556 73.5529C93.2693 69.1923 90.2323 65.1602 85.8716 64.5465L58.2278 60.6563C53.8672 60.0428 49.8349 63.0801 49.2214 67.4405C48.6076 71.8009 51.6452 75.8329 56.0056 76.4467Z" stroke="black" stroke-width="2" stroke-miterlimit="10"/>
<path d="M61.7827 115.673L89.4868 112.24C93.8569 111.699 96.9607 107.717 96.4194 103.347C95.8779 98.9771 91.8961 95.8736 87.526 96.4148L59.8216 99.8476C55.4515 100.389 52.348 104.371 52.8895 108.741C53.431 113.111 57.4126 116.214 61.7827 115.673Z" fill="white"/>
<path d="M61.7827 115.673L89.4868 112.24C93.8569 111.699 96.9607 107.717 96.4194 103.347C95.8779 98.9771 91.8961 95.8736 87.526 96.4148L59.8216 99.8476C55.4515 100.389 52.348 104.371 52.8895 108.741C53.431 113.111 57.4126 116.214 61.7827 115.673Z" stroke="black" stroke-width="2" stroke-miterlimit="10"/>
<path d="M66.6096 131.787L94.314 128.354C98.6841 127.813 101.788 123.831 101.247 119.461C100.705 115.091 96.7232 111.988 92.3531 112.529L64.6487 115.962C60.2786 116.503 57.1751 120.485 57.7166 124.855C58.2581 129.225 62.2395 132.329 66.6096 131.787Z" fill="white"/>
<path d="M66.6096 131.787L94.314 128.354C98.6841 127.813 101.788 123.831 101.247 119.461C100.705 115.091 96.7232 111.988 92.3531 112.529L64.6487 115.962C60.2786 116.503 57.1751 120.485 57.7166 124.855C58.2581 129.225 62.2395 132.329 66.6096 131.787Z" stroke="black" stroke-width="2" stroke-miterlimit="10"/>
<path d="M121.757 147.409H74.0164C69.3985 147.409 65.6201 143.631 65.6201 139.013V41.2689C65.6201 36.6507 69.3985 32.8723 74.0164 32.8723H121.757C126.375 32.8723 130.154 36.6507 130.154 41.2689V139.013C130.154 143.631 126.375 147.409 121.757 147.409Z" fill="white"/>
<path d="M121.757 147.409H74.0164C69.3985 147.409 65.6201 143.631 65.6201 139.013V41.2689C65.6201 36.6507 69.3985 32.8723 74.0164 32.8723H121.757C126.375 32.8723 130.154 36.6507 130.154 41.2689V139.013C130.154 143.631 126.375 147.409 121.757 147.409Z" stroke="black" stroke-width="2" stroke-miterlimit="10"/>
<path d="M124.835 140.366H74.3298H70.9395V44.7104H124.835V140.366Z" fill="white"/>
<path d="M124.835 140.366H74.3298H70.9395V44.7104H124.835V140.366Z" stroke="black" stroke-width="2" stroke-miterlimit="10"/>
<path d="M92.2832 38.7163H103.492" stroke="black" stroke-width="2" stroke-miterlimit="10" stroke-linecap="round"/>
<path d="M115.174 94.4423C115.174 104.253 107.412 112.165 97.8869 112.165C88.3616 112.165 80.5996 104.253 80.5996 94.4423C80.5996 84.6318 88.3616 76.7194 97.8869 76.7194C107.412 76.7194 115.174 84.6318 115.174 94.4423Z" fill="#292727" stroke="white" stroke-width="2"/>
<path d="M116.174 94.4423C116.174 104.783 107.986 113.165 97.8869 113.165C87.7873 113.165 79.5996 104.783 79.5996 94.4423C79.5996 84.1019 87.7873 75.7194 97.8869 75.7194C107.986 75.7194 116.174 84.1019 116.174 94.4423Z" stroke="white" stroke-width="2" stroke-miterlimit="10"/>
<path d="M89.125 96.7112L94.632 102.841L107.22 85.9711" stroke="white" stroke-width="2" stroke-linecap="round" stroke-linejoin="round"/>
<path d="M126.211 155.52C118.842 147.409 119.349 134.56 122.178 128.901C123.172 126.912 124.383 125.318 124.835 123.016C125.915 117.507 124.945 111.734 124.693 106.162C124.463 101.062 124.83 95.703 127.152 91.2071C128.587 88.4261 131.216 85.4887 134.658 85.882C138.405 86.3103 140.901 90.0853 142.178 93.2911C144.213 98.4016 144.846 104.27 146.034 109.627C147.326 115.448 148.642 121.265 149.709 127.132C151.328 136.036 152.634 145.23 152.236 154.282" fill="white"/>
<path d="M126.211 155.52C118.842 147.409 119.349 134.56 122.178 128.901C123.172 126.912 124.383 125.318 124.835 123.016C125.915 117.507 124.945 111.734 124.693 106.162C124.463 101.062 124.83 95.703 127.152 91.2071C128.587 88.4261 131.216 85.4887 134.658 85.882C138.405 86.3103 140.901 90.0853 142.178 93.2911C144.213 98.4016 144.846 104.27 146.034 109.627C147.326 115.448 148.642 121.265 149.709 127.132C151.328 136.036 152.634 145.23 152.236 154.282" stroke="black" stroke-width="2" stroke-linecap="round" stroke-linejoin="round"/>
</g>
</g>
</svg>
